<svg xmlns="http://www.w3.org/2000/svg" xmlns:xlink="http://www.w3.org/1999/xlink" width="1000" height="295.41" viewBox="0 0 1000 295.41"><defs><clipPath id="a"><circle cx="1371.63" cy="300" r="300" fill="none"/></clipPath></defs><path d="M1,293,108.05,7h56L270.67,293H220.42l-27-70.68H76.18L49.62,293ZM89.26,182.23h91.11L134.61,57.61Z" fill="#001ee6"/><path d="M295.59,14l44.13-7V293H295.59Z" fill="#001ee6"/><path d="M383,32.3l44.13-7V83.76h50.66v38.82H427.16V231.67q0,12.27,4.9,17.37t16.75,5.11h33.51V293h-42.5q-29.82,0-43.31-13.89T383,236.17Z" fill="#001ee6"/><path d="M507,132.18A92,92,0,0,1,543,94.59q23.09-13.28,52.92-13.28,30.23,0,53.32,12.26a91.09,91.09,0,0,1,36.36,34.73q13.27,22.47,13.69,52.71a119.4,119.4,0,0,1-1.22,16.75H540.34v2.45q1.62,27.38,17.16,43.31t41.27,15.94q20.41,0,34.32-9.61t18.38-27.17H695.6A84.56,84.56,0,0,1,664.75,275Q639.63,295.43,602,295.41q-32.68,0-57-13.27a92.82,92.82,0,0,1-37.59-37.39q-13.29-24.1-13.28-56Q494.17,156.51,507,132.18Zm147.3,33.3q-2.87-22.87-18.19-35.75t-38.61-12.87q-21.66,0-37.39,13.28T542,165.48Z" fill="#001ee6"/><path d="M776.09,7.56a25.44,25.44,0,0,1,7.77,19,25.44,25.44,0,0,1-7.77,19,28.16,28.16,0,0,1-38.4,0,25.4,25.4,0,0,1-7.77-19,25.4,25.4,0,0,1,7.77-19,28.16,28.16,0,0,1,38.4,0Zm-41.27,76.2H779V293H734.82Z" fill="#001ee6"/><path d="M977.12,100.92q22.88,19.62,22.88,56V293H961.59l-3.68-29.83a83.31,83.31,0,0,1-28,23.91q-16.15,8.37-39.43,8.37-34.74,0-55.57-16.34t-20.84-44.95q0-32.26,23.08-49.64T904,167.11h52.3V154.45q0-17.56-12.26-27.58t-33.91-10q-19.22,0-31.67,8.17a32.45,32.45,0,0,0-14.91,22.47H820.22Q823.47,116,848,98.68t64.15-17.37Q954.23,81.31,977.12,100.92ZM940.55,246.38q15.32-14.7,15.73-39.22V199.8H901.53q-20.44,0-31.46,8t-11,23.49a26.19,26.19,0,0,0,10.42,21.66q10.42,8.18,28.4,8.17Q925.23,261.09,940.55,246.38Z" fill="#001ee6"/><g clip-path="url(#a)"><rect x="1084.92" y="13.1" width="573.23" height="573.85" transform="translate(189.56 1057.7) rotate(-45)" fill="none" stroke="#001ee6" stroke-miterlimit="10" stroke-width="66.61"/></g></svg>
