<svg xmlns="http://www.w3.org/2000/svg" viewBox="0 0 900 272.99"><defs><style>.cls-1{fill:#191d20;}.cls-2{fill:#1c7dff;}</style></defs><g id="Calque_2" data-name="Calque 2"><g id="Calque_1-2" data-name="Calque 1"><path class="cls-1" d="M438.33,234.68a28,28,0,0,1-3.33-.13c-9.93-.59-17.05-3.79-21.42-9.74-4.9-6.53-7.32-17.5-7.32-32.79V114.35h47.88L448.2,77.51H406.26V14.74l-44.09,7.32V192.35a154,154,0,0,0,3.27,33.77,62.44,62.44,0,0,0,11.3,25.15,50.28,50.28,0,0,0,21.68,15.87A79.67,79.67,0,0,0,419.91,272c4,.39,8.17.58,12.61.58,11.17,0,29.53-3.59,29.53-3.59l-5.88-36.25A108.85,108.85,0,0,1,438.33,234.68Z"/><path class="cls-1" d="M343.33,270.66a147.62,147.62,0,0,1-20,2,122,122,0,0,1-12.66-.68,77.56,77.56,0,0,1-21.43-4.8c-9.12-3.67-16.4-9-21.69-15.88a62.57,62.57,0,0,1-11.3-25.16,155.81,155.81,0,0,1-3.31-33.77V22.07l44.16-7.34V192c0,15.29,2.4,26.26,7.24,32.79,4.38,5.94,11.55,9.12,21.42,9.74a29.73,29.73,0,0,0,3.41.13,78.14,78.14,0,0,0,8.28-.52Z"/><path class="cls-1" d="M693.93,0a27.91,27.91,0,0,0-19.34,7.25c-5.36,4.9-8,11.56-8,20.05,0,8.3,2.61,14.83,8,19.73a27.87,27.87,0,0,0,19.34,7.25,27.51,27.51,0,0,0,19-7.25c5.3-4.9,8-11.43,8-19.73,0-8.49-2.67-15.15-8-20A27.55,27.55,0,0,0,693.93,0Z"/><rect class="cls-1" x="672.04" y="77.51" width="44.16" height="190.67"/><path class="cls-1" d="M896.2,117.49a56.77,56.77,0,0,0-12.73-23.91q-9-9.87-23.92-15.28c-9.94-3.67-22.27-5.49-36.85-5.49a198.31,198.31,0,0,0-34.29,2.86c-10.65,2-18.79,3.93-24.35,5.91L770,117.11a121.29,121.29,0,0,1,20.27-5A171.61,171.61,0,0,1,818.34,110c7.57,0,13.77,1,18.81,2.91a30.81,30.81,0,0,1,12,8.19,31.48,31.48,0,0,1,6.44,12.21,59.84,59.84,0,0,1,1.81,14.64v7.24a150.63,150.63,0,0,0-17.17-3.09,128.77,128.77,0,0,0-15.29-.91,144.26,144.26,0,0,0-30.13,3.09,74.45,74.45,0,0,0-25.32,10.27,51.7,51.7,0,0,0-17.3,18.34c-4.26,7.59-6.38,16.78-6.38,27.75,0,11.36,1.85,21,5.62,28.74a49.92,49.92,0,0,0,15.68,19A67.55,67.55,0,0,0,791.36,269a141.35,141.35,0,0,0,31.34,3.29,313.29,313.29,0,0,0,46.52-3.15c13.74-2,24-3.8,30.78-5.3V148.26A117.13,117.13,0,0,0,896.2,117.49ZM857.4,235c-7.1,1.5-17.36,2.21-31,2.21-11.17,0-20.06-2-26.58-6s-9.87-11.24-9.87-21.7c0-5.35,1.2-9.79,3.66-13.3a24,24,0,0,1,9.62-8.19A46.11,46.11,0,0,1,816.7,184a103.78,103.78,0,0,1,14.77-1.1,100.52,100.52,0,0,1,15.36,1.1,75,75,0,0,1,10.57,2.24Z"/><path class="cls-1" d="M618.68,96.52c-11.56-12.47-26.47-20.11-44.87-23.13A118.79,118.79,0,0,0,554,73.07a92.06,92.06,0,0,0-33.24,8.45,85.45,85.45,0,0,0-28,20.8,92.51,92.51,0,0,0-18.31,32.79q-6.44,19.53-4.74,44.64c.9,14.36,2.73,27.45,7.56,39.19a88.53,88.53,0,0,0,21,31c8.8,8.38,20.26,13.86,33.31,18.05a103.81,103.81,0,0,0,16.27,3.71h.26A131.34,131.34,0,0,0,568.91,273s3.64.06,9.67-.45a172.36,172.36,0,0,0,52.69-13c2-.84,3.91-1.74,5.88-2.69-2.69-16.08-5.58-33.43-5.85-35.09a.42.42,0,0,0,0-.13c-2.4,1.17-5.36,2.45-8.66,3.68-.65.26-1.4.45-2.05.71-.39.13-.78.19-1.1.32a29.57,29.57,0,0,1-2.93,1,2.31,2.31,0,0,0-.68.25c-1.62.53-3.44,1-5.36,1.6a.82.82,0,0,0-.38.06c-2.28.66-4.64,1.23-7.05,1.7-.64.13-1.36.25-2.08.45-.39.06-.94.19-1.39.25a22.55,22.55,0,0,1-3.7.66,141.48,141.48,0,0,1-22.92,2c-.76.06-1.46.06-2.18.06-18.79,0-30-4.19-39.9-12.63s-14.7-19.77-16-35.13H640.7c.12-1.23.51-7.34.51-8.77.13-3,.19-5.74.19-8.21Q641.4,121.05,618.68,96.52ZM515.27,154.07a74.54,74.54,0,0,1,4-16.45,45.91,45.91,0,0,1,8.21-14.25,40.42,40.42,0,0,1,13-10.07,39.74,39.74,0,0,1,17.88-3.83,39,39,0,0,1,16.91,3.43,35.65,35.65,0,0,1,12,9.55,41.1,41.1,0,0,1,7.53,14.26,61.18,61.18,0,0,1,2.54,17.36Z"/><path class="cls-1" d="M142.49,18.47h-43A2548.73,2548.73,0,0,0,0,268.22H48.93C71.55,201.57,93,136,121,71.4c28.05,64.55,49.45,130.17,72.07,196.82H242A2546.23,2546.23,0,0,0,142.49,18.47Z"/><path class="cls-2" d="M154.29,214a78,78,0,0,1-66.58,0q-6.13,17.82-12.4,36.7c.94.41,1.87.79,2.84,1.18h0a116.75,116.75,0,0,0,85.66,0h0c1-.39,1.91-.77,2.85-1.18Q160.43,231.83,154.29,214Z"/></g></g></svg>
